# Blender 4.4.1
# www.blender.org
mtllib model.mtl
o Cube
v 1.000000 1.000000 -1.000000
v 1.000000 -1.000000 -1.000000
v 1.000000 1.000000 1.000000
v 1.000000 -1.000000 1.000000
v -1.000000 1.000000 -1.000000
v -1.000000 -1.000000 -1.000000
v -1.000000 1.000000 1.000000
v -1.000000 -1.000000 1.000000
v -1.637802 -1.000000 0.000000
v 1.389749 1.000000 0.000000
v -1.637802 1.000000 0.000000
v 1.389749 -1.000000 0.000000
v 0.000000 -1.000000 -1.000000
v 0.000000 1.000000 1.000000
v 0.000000 -1.000000 1.000000
v 0.000000 1.000000 -1.000000
v 0.000000 -1.000000 0.000000
v 0.000000 1.905488 0.000000
vn -0.3792 0.6859 0.6211
vn -0.0000 -0.0000 1.0000
vn -0.8431 -0.0000 -0.5377
vn -0.0000 -1.0000 -0.0000
vn 0.9317 -0.0000 0.3631
vn -0.0000 -0.0000 -1.0000
vn 0.9317 -0.0000 -0.3631
vn -0.8431 -0.0000 0.5377
vn -0.3792 0.6859 -0.6211
vn -0.0000 1.0000 -0.0000
vn 0.4349 0.6675 -0.6044
vn 0.4349 0.6675 0.6044
vt 0.875000 0.625000
vt 0.750000 0.750000
vt 0.750000 0.625000
vt 0.625000 0.875000
vt 0.375000 1.000000
vt 0.375000 0.875000
vt 0.625000 0.125000
vt 0.375000 0.250000
vt 0.375000 0.125000
vt 0.375000 0.625000
vt 0.250000 0.750000
vt 0.250000 0.625000
vt 0.625000 0.625000
vt 0.375000 0.750000
vt 0.625000 0.375000
vt 0.375000 0.500000
vt 0.375000 0.375000
vt 0.625000 0.500000
vt 0.250000 0.500000
vt 0.625000 0.000000
vt 0.375000 0.000000
vt 0.750000 0.500000
vt 0.125000 0.625000
vt 0.125000 0.500000
vt 0.625000 0.250000
vt 0.125000 0.750000
vt 0.625000 0.750000
vt 0.875000 0.750000
vt 0.625000 1.000000
vt 0.875000 0.500000
s 0
usemtl Material
f 11/1/1 14/2/1 18/3/1
f 14/4/2 8/5/2 15/6/2
f 11/7/3 6/8/3 9/9/3
f 12/10/4 15/11/4 17/12/4
f 10/13/5 4/14/5 12/10/5
f 16/15/6 2/16/6 13/17/6
f 1/18/7 12/10/7 2/16/7
f 2/16/4 17/12/4 13/19/4
f 7/20/8 9/9/8 8/21/8
f 16/22/9 11/1/9 18/3/9
f 16/22/10 10/13/10 1/18/10
f 13/19/4 9/23/4 6/24/4
f 5/25/6 13/17/6 6/8/6
f 17/12/4 8/26/4 9/23/4
f 3/27/2 15/6/2 4/14/2
f 10/13/10 14/2/10 3/27/10
f 11/1/10 7/28/10 14/2/10
f 14/4/2 7/29/2 8/5/2
f 11/7/3 5/25/3 6/8/3
f 12/10/4 4/14/4 15/11/4
f 10/13/5 3/27/5 4/14/5
f 16/15/6 1/18/6 2/16/6
f 1/18/7 10/13/7 12/10/7
f 2/16/4 12/10/4 17/12/4
f 7/20/8 11/7/8 9/9/8
f 16/22/10 5/30/10 11/1/10
f 16/22/11 18/3/11 10/13/11
f 13/19/4 17/12/4 9/23/4
f 5/25/6 16/15/6 13/17/6
f 17/12/4 15/11/4 8/26/4
f 3/27/2 14/4/2 15/6/2
f 10/13/12 18/3/12 14/2/12
